<?xml version="1.0" encoding="utf-8"?>
<svg xmlns="http://www.w3.org/2000/svg"
	xmlns:xlink="http://www.w3.org/1999/xlink"
	width="30px" height="8px" viewBox="0 0 30 8">
<clipPath id="clip0"><path fillRule="evenodd" d="M-1 9C-1 9-1-1-1-1-1-1 31-1 31-1 31-1 31 9 31 9 31 9-1 9-1 9ZM 4 1C 2.34 1 1 2.34 1 4 1 5.65 2.34 7 4 7 5.66 7 7 5.65 7 4 7 2.34 5.66 1 4 1ZM 15 1C 13.34 1 12 2.34 12 4 12 5.65 13.34 7 15 7 16.66 7 18 5.65 18 4 18 2.34 16.66 1 15 1ZM 26 1C 24.34 1 23 2.34 23 4 23 5.65 24.34 7 26 7 27.66 7 29 5.65 29 4 29 2.34 27.66 1 26 1Z"/></clipPath><defs>
<symbol id="symbol0"><path fillRule="evenodd" d="M 26 7C 24.34 7 23 5.65 23 4 23 2.34 24.34 1 26 1 27.66 1 29 2.34 29 4 29 5.65 27.66 7 26 7ZM 15 7C 13.34 7 12 5.65 12 4 12 2.34 13.34 1 15 1 16.66 1 18 2.34 18 4 18 5.65 16.66 7 15 7ZM 4 7C 2.34 7 1 5.65 1 4 1 2.34 2.34 1 4 1 5.66 1 7 2.34 7 4 7 5.65 5.66 7 4 7Z"/></symbol></defs>
<g><use xlink:href="#symbol0" x="0" y="0" width="30" height="8" fill="rgb(255,255,255)"/><use xlink:href="#symbol0" x="0" y="0" width="30" height="8" fill="none" stroke="rgb(143,143,141)" stroke-width="1.00px" clip-path="url(#clip0)"/></g></svg>