<svg xmlns="http://www.w3.org/2000/svg" xmlns:xlink="http://www.w3.org/1999/xlink" width="36" height="32" viewBox="0 0 36 32">
  <metadata><?xpacket begin="﻿" id="W5M0MpCehiHzreSzNTczkc9d"?>
<x:xmpmeta xmlns:x="adobe:ns:meta/" x:xmptk="Adobe XMP Core 5.6-c138 79.159824, 2016/09/14-01:09:01        ">
   <rdf:RDF xmlns:rdf="http://www.w3.org/1999/02/22-rdf-syntax-ns#">
      <rdf:Description rdf:about=""/>
   </rdf:RDF>
</x:xmpmeta>
                                                                                                    
                                                                                                    
                                                                                                    
                                                                                                    
                                                                                                    
                                                                                                    
                                                                                                    
                                                                                                    
                                                                                                    
                                                                                                    
                                                                                                    
                                                                                                    
                                                                                                    
                                                                                                    
                                                                                                    
                                                                                                    
                                                                                                    
                                                                                                    
                                                                                                    
                                                                                                    
                           
<?xpacket end="w"?></metadata>
<defs>
    <style>
      .cls-1 {
        fill-rule: evenodd;
        filter: url(#filter);
      }
    </style>
    <filter id="filter" x="883" y="593" width="36" height="32" filterUnits="userSpaceOnUse">
      <feOffset result="offset" in="SourceAlpha"/>
      <feGaussianBlur result="blur" stdDeviation="1.732"/>
      <feFlood result="flood" flood-color="#2c1a12"/>
      <feComposite result="composite" operator="in" in2="blur"/>
      <feBlend result="blend" in="SourceGraphic"/>
      <feFlood result="flood-2" flood-color="#897a6e"/>
      <feComposite result="composite-2" operator="in" in2="SourceGraphic"/>
      <feBlend result="blend-2" in2="blend"/>
    </filter>
  </defs>
  <path id="Forma_1" data-name="Forma 1" class="cls-1" d="M915.732,617.876c-0.01-.021-0.02-0.042-0.031-0.062l-2.254-4.133a1.026,1.026,0,0,0-.608-0.493l-2.679-.8-1.413-2.4a1.032,1.032,0,0,0-.592-0.464l-2.679-.8-1.412-2.4a1.032,1.032,0,0,0-.593-0.465l-1.945-.583a8.287,8.287,0,0,0-2.979-8.473,8.345,8.345,0,1,0-1.038,13.8l13.755,10.784a2.937,2.937,0,0,0,4.109-.483A2.892,2.892,0,0,0,915.732,617.876Zm-3.2,1.891-14.326-11.231a1.031,1.031,0,0,0-1.223-.036,6.271,6.271,0,1,1,2.293-2.921,1.024,1.024,0,0,0,.666,1.345l2.548,0.763,1.413,2.4a1.029,1.029,0,0,0,.592.465l2.679,0.8,1.413,2.4a1.029,1.029,0,0,0,.592.465l2.661,0.8,2.031,3.727a0.859,0.859,0,0,1-.118.871A0.872,0.872,0,0,1,912.535,619.767Zm-18.806-19.544a2.669,2.669,0,1,0,.451,3.745A2.688,2.688,0,0,0,893.729,600.223Zm-2.039,2.58a0.618,0.618,0,0,1-.105-0.87,0.626,0.626,0,0,1,.874-0.1A0.62,0.62,0,1,1,891.69,602.8Z" transform="translate(-883 -593)"/>
</svg>
